# xmcd
#
# Track frame offsets: 
#        150
#        45667
#        111275
#        133538
#        155986
#        209414
#        242341
#
# Disc length: 4141 seconds
#
# Revision: 3
# Processed by: cddbd v1.5.2PL0 Copyright (c) Steve Scherf et al.
# Submitted via: ExactAudioCopyFreeDBPlugin 1.0
#
DISCID=5f102b07
DTITLE=Slaughter, Karin - Zerstört
DYEAR=2009
DGENRE=Hörbuch
TTITLE0=15 Zerstört
TTITLE1=16 Zerstört
TTITLE2=17 Zerstört
TTITLE3=18 Zerstört
TTITLE4=19 Zerstört
TTITLE5=20 Zerstört
TTITLE6=21 Zerstört
EXTD=YEAR: 2009
EXTT0=
EXTT1=
EXTT2=
EXTT3=
EXTT4=
EXTT5=
EXTT6=
PLAYORDER=
